<svg id="Layer_1" data-name="Layer 1" xmlns="http://www.w3.org/2000/svg" viewBox="0 0 242.56 207.37"><defs><style>.cls-1{fill:#005495;}.cls-2{fill:#008e84;}.cls-3{fill:#32bcad;}.cls-4{fill:#585747;}</style></defs><title>logo-header</title><path class="cls-1" d="M214.34,178.59a93.49,93.49,0,0,1-87.45,60.5,92.34,92.34,0,0,1-58-20.31A93.3,93.3,0,0,1,127,52.49c.64,0,1.27,0,1.9,0v-10c-.63,0-1.26,0-1.9,0A103.3,103.3,0,0,0,62.61,226.6a103.3,103.3,0,0,0,145.16-16.47A103.33,103.33,0,0,0,225,178.59Z" transform="translate(-23.71 -41.72)"/><path class="cls-2" d="M195.13,178.6s-5.11,9.42-8.74,14a75.78,75.78,0,1,1-59.24-123c.66,0,1.31,0,2,0v-10c-.66,0-1.31,0-2,0A85.79,85.79,0,1,0,194.22,198.8a82,82,0,0,0,12-20.2Z" transform="translate(-23.71 -41.72)"/><path class="cls-3" d="M174.69,178.63c-.67,1-1.37,1.92-2.11,2.86a58,58,0,1,1-45.36-94.16c.67,0,1.34,0,2,0V77.25c-.67,0-1.34,0-2,0A68.14,68.14,0,1,0,180.5,187.79a69.73,69.73,0,0,0,6.14-9.16Z" transform="translate(-23.71 -41.72)"/><path class="cls-4" d="M118.84,113.54h10.34L150,168.33H137.85L133,156.42h-19.5l-3.81,11.91h-12ZM117.1,146l12.61.12-6.45-18.44Z" transform="translate(-23.71 -41.72)"/><path class="cls-4" d="M155.19,113.54h10.3l14.95,33.56,15.08-33.56h10.66v54.79H195.32V137.41l-15,31.73L165.53,138v30.31H155.19Z" transform="translate(-23.71 -41.72)"/><path class="cls-4" d="M214.36,113.54h10.82v54.79H214.36Z" transform="translate(-23.71 -41.72)"/><path class="cls-4" d="M139.25,59.37h2l2.88,6.47,2.9-6.47h2.06V69.93H147V64l-2.9,6.12-2.85-6v5.84h-2Z" transform="translate(-23.71 -41.72)"/><path class="cls-4" d="M155.66,59.18a4.53,4.53,0,0,1,3.19,1.36,5.65,5.65,0,0,1,1.37,4.08,5.49,5.49,0,0,1-1.42,4.17,4.49,4.49,0,0,1-3.55,1.31A4.1,4.1,0,0,1,152,68.5a6.23,6.23,0,0,1-1.09-4,5.39,5.39,0,0,1,1.45-3.91A4.55,4.55,0,0,1,155.66,59.18Zm-2.56,5.47a4.07,4.07,0,0,0,.67,2.38,2.17,2.17,0,0,0,1.84,1,2.06,2.06,0,0,0,1.82-.92,4.21,4.21,0,0,0,.64-2.39,4.08,4.08,0,0,0-.68-2.41,2.13,2.13,0,0,0-1.84-.95,2.07,2.07,0,0,0-1.81.95A4.12,4.12,0,0,0,153.1,64.65Z" transform="translate(-23.71 -41.72)"/><path class="cls-4" d="M162.25,59.37h2.09l4.53,6.38V59.37H171V69.93h-2.1L164.34,63v6.93h-2.09Z" transform="translate(-23.71 -41.72)"/><path class="cls-4" d="M172.88,59.37H181v2.09h-3v8.47h-2.19V61.46h-2.93Z" transform="translate(-23.71 -41.72)"/><path class="cls-4" d="M183.17,59.37h7.22v2.09h-5.13v1.89h3v2h-3V68h5.44v2h-7.53Z" transform="translate(-23.71 -41.72)"/><path class="cls-4" d="M194.5,66.84A4.17,4.17,0,0,0,197,68.06a2,2,0,0,0,1.79-.44,1,1,0,0,0,.22-1.14c-.17-.39-1-.73-2.5-1a3.59,3.59,0,0,1-2.83-1.81,3.1,3.1,0,0,1,.25-2.86,3.39,3.39,0,0,1,3.1-1.57,5.52,5.52,0,0,1,4,1.6l-1.5,1.5a4.07,4.07,0,0,0-2.5-1c-.83,0-1.3.27-1.39.83s.35,1,1.34,1.16a13,13,0,0,1,2.8.93,2.52,2.52,0,0,1,1.45,2.22,3.08,3.08,0,0,1-.86,2.6,3.93,3.93,0,0,1-2.75,1.06,6.44,6.44,0,0,1-2.94-.5A3.67,3.67,0,0,1,193,68.26Z" transform="translate(-23.71 -41.72)"/><path class="cls-4" d="M204.83,66.84a4.17,4.17,0,0,0,2.47,1.22,2,2,0,0,0,1.79-.44,1,1,0,0,0,.22-1.14c-.17-.39-1-.73-2.5-1A3.59,3.59,0,0,1,204,63.64a3.1,3.1,0,0,1,.25-2.86,3.39,3.39,0,0,1,3.1-1.57,5.52,5.52,0,0,1,4,1.6l-1.5,1.5a4.07,4.07,0,0,0-2.5-1c-.83,0-1.3.27-1.39.83s.35,1,1.34,1.16a13,13,0,0,1,2.8.93,2.52,2.52,0,0,1,1.45,2.22,3.08,3.08,0,0,1-.86,2.6A3.93,3.93,0,0,1,208,70.09a6.37,6.37,0,0,1-2.93-.5,3.7,3.7,0,0,1-1.65-1.33Z" transform="translate(-23.71 -41.72)"/><path class="cls-4" d="M217.65,59.18a4.49,4.49,0,0,1,3.18,1.36,5.61,5.61,0,0,1,1.38,4.08,5.49,5.49,0,0,1-1.42,4.17,4.49,4.49,0,0,1-3.55,1.31A4.1,4.1,0,0,1,214,68.5a6.29,6.29,0,0,1-1.1-4,5.39,5.39,0,0,1,1.46-3.91A4.53,4.53,0,0,1,217.65,59.18Zm-2.57,5.47a4.07,4.07,0,0,0,.68,2.38,2.16,2.16,0,0,0,1.84,1,2,2,0,0,0,1.81-.92,4.13,4.13,0,0,0,.64-2.39,4.08,4.08,0,0,0-.67-2.41,2.14,2.14,0,0,0-1.84-.95,2.09,2.09,0,0,0-1.82.95A4.2,4.2,0,0,0,215.08,64.65Z" transform="translate(-23.71 -41.72)"/><path class="cls-4" d="M224.18,59.37h5a3.36,3.36,0,0,1,2.65,1,3.72,3.72,0,0,1,.83,2.8,3.06,3.06,0,0,1-2,2.67l2,4.06h-2.46l-1.88-3.78-2.1,0v3.76h-2.08Zm2.08,2.09v2.72H229a1.65,1.65,0,0,0,1.13-.39,1.29,1.29,0,0,0,.43-1,1.16,1.16,0,0,0-.43-1,1.7,1.7,0,0,0-1.07-.35Z" transform="translate(-23.71 -41.72)"/><path class="cls-4" d="M235,59.37h2.09V69.93H235Z" transform="translate(-23.71 -41.72)"/><path class="cls-4" d="M139.27,77.11h2.08V87.67h-2.08Z" transform="translate(-23.71 -41.72)"/><path class="cls-4" d="M143.52,77.11h2.1l4.53,6.37V77.11h2.09V87.67h-2.09l-4.53-6.94v6.94h-2.1Z" transform="translate(-23.71 -41.72)"/><path class="cls-4" d="M153.9,77.11h8.15V79.2h-3v8.47h-2.19V79.2H153.9Z" transform="translate(-23.71 -41.72)"/><path class="cls-4" d="M163.94,77.11h7.21V79.2H166v1.88h3v2h-3v2.62h5.44v2h-7.53Z" transform="translate(-23.71 -41.72)"/><path class="cls-4" d="M173.53,77.11h5a3.37,3.37,0,0,1,2.65,1,3.77,3.77,0,0,1,.83,2.8,3.08,3.08,0,0,1-2,2.67l2,4.06h-2.46l-1.88-3.78h-2.1v3.77h-2.08Zm2.08,2.09v2.72h2.72a1.65,1.65,0,0,0,1.13-.39,1.3,1.3,0,0,0,.43-1,1.14,1.14,0,0,0-.43-1,1.7,1.7,0,0,0-1.07-.35Z" transform="translate(-23.71 -41.72)"/><path class="cls-4" d="M184,77.11h2.09l4.53,6.37V77.11h2.09V87.67h-2.09l-4.53-6.94v6.94H184Z" transform="translate(-23.71 -41.72)"/><path class="cls-4" d="M197.89,77.11h2l4,10.56h-2.34l-1-2.3h-3.75l-.74,2.3h-2.3Zm-.34,6.25,2.43,0-1.24-3.55Z" transform="translate(-23.71 -41.72)"/><path class="cls-4" d="M203.89,77.11h8.16V79.2h-3v8.47h-2.2V79.2h-2.93Z" transform="translate(-23.71 -41.72)"/><path class="cls-4" d="M213.9,77.11H216V87.67H213.9Z" transform="translate(-23.71 -41.72)"/><path class="cls-4" d="M222.3,76.92a4.47,4.47,0,0,1,3.19,1.36,5.59,5.59,0,0,1,1.38,4.08,5.49,5.49,0,0,1-1.43,4.17,4.51,4.51,0,0,1-3.54,1.31,4.11,4.11,0,0,1-3.24-1.61,6.28,6.28,0,0,1-1.09-4A5.39,5.39,0,0,1,219,78.31,4.51,4.51,0,0,1,222.3,76.92Zm-2.56,5.47a4,4,0,0,0,.67,2.37,2.16,2.16,0,0,0,1.85,1,2,2,0,0,0,1.81-.92,4.15,4.15,0,0,0,.64-2.39A4.08,4.08,0,0,0,224,80a2.14,2.14,0,0,0-1.85-1,2,2,0,0,0-1.81,1A4.12,4.12,0,0,0,219.74,82.39Z" transform="translate(-23.71 -41.72)"/><path class="cls-4" d="M228.52,77.11h2.1l4.53,6.37V77.11h2.09V87.67h-2.09l-4.53-6.94v6.94h-2.1Z" transform="translate(-23.71 -41.72)"/><path class="cls-4" d="M242.45,77.11h2l4,10.56h-2.34l-1-2.3h-3.76l-.73,2.3h-2.31Zm-.33,6.25,2.43,0-1.25-3.55Z" transform="translate(-23.71 -41.72)"/><path class="cls-4" d="M249.8,77.11h2.1v8.58h5v2H249.8Z" transform="translate(-23.71 -41.72)"/><path class="cls-4" d="M258.75,77.11H266V79.2h-5.13v1.88h3v2h-3v2.62h5.44v2h-7.53Z" transform="translate(-23.71 -41.72)"/><path class="cls-4" d="M142.78,41.91h2l4,10.56h-2.35l-.94-2.29h-3.76L141,52.47h-2.3Zm-.34,6.25,2.43,0-1.24-3.55Z" transform="translate(-23.71 -41.72)"/><path class="cls-4" d="M151.14,49.38a4.15,4.15,0,0,0,2.46,1.22,2,2,0,0,0,1.8-.44,1,1,0,0,0,.22-1.14c-.18-.39-1-.73-2.5-1a3.59,3.59,0,0,1-2.83-1.81,3.07,3.07,0,0,1,.25-2.86,3.38,3.38,0,0,1,3.1-1.57,5.52,5.52,0,0,1,4,1.6l-1.5,1.5a4.1,4.1,0,0,0-2.5-1c-.84,0-1.3.27-1.39.83s.35,1,1.34,1.16a13,13,0,0,1,2.8.93A2.52,2.52,0,0,1,157.87,49a3.11,3.11,0,0,1-.86,2.6,4,4,0,0,1-2.75,1.06,6.39,6.39,0,0,1-2.94-.5,3.76,3.76,0,0,1-1.65-1.33Z" transform="translate(-23.71 -41.72)"/><path class="cls-4" d="M160.87,49.38a4.2,4.2,0,0,0,2.47,1.22,2,2,0,0,0,1.8-.44,1,1,0,0,0,.22-1.14c-.18-.39-1-.73-2.5-1A3.59,3.59,0,0,1,160,46.18a3.07,3.07,0,0,1,.25-2.86,3.36,3.36,0,0,1,3.09-1.57,5.5,5.5,0,0,1,4,1.6l-1.5,1.5a4.05,4.05,0,0,0-2.5-1c-.83,0-1.29.27-1.39.83s.36,1,1.35,1.16a12.7,12.7,0,0,1,2.79.93A2.53,2.53,0,0,1,167.61,49a3.14,3.14,0,0,1-.86,2.6A4,4,0,0,1,164,52.63a6.39,6.39,0,0,1-2.94-.5,3.76,3.76,0,0,1-1.65-1.33Z" transform="translate(-23.71 -41.72)"/><path class="cls-4" d="M173.48,41.72a4.51,4.51,0,0,1,3.19,1.36,5.61,5.61,0,0,1,1.38,4.08,5.49,5.49,0,0,1-1.43,4.17,4.47,4.47,0,0,1-3.54,1.31,4.1,4.1,0,0,1-3.24-1.6,6.29,6.29,0,0,1-1.09-4,5.43,5.43,0,0,1,1.45-3.91A4.55,4.55,0,0,1,173.48,41.72Zm-2.56,5.47a4.07,4.07,0,0,0,.67,2.38,2.19,2.19,0,0,0,1.85,1,2,2,0,0,0,1.81-.92,4.13,4.13,0,0,0,.64-2.39,4.08,4.08,0,0,0-.67-2.41,2.15,2.15,0,0,0-1.85-.95,2.07,2.07,0,0,0-1.81.95A4.2,4.2,0,0,0,170.92,47.19Z" transform="translate(-23.71 -41.72)"/><path class="cls-4" d="M184.25,41.72a4.57,4.57,0,0,1,2.14.52,3.81,3.81,0,0,1,1.67,1.83l-1.93,1a1.87,1.87,0,0,0-1.64-1.15,2.43,2.43,0,0,0-1.93.68A3.45,3.45,0,0,0,181.7,47a3.92,3.92,0,0,0,.66,2.61,2.31,2.31,0,0,0,1.91,1,2.38,2.38,0,0,0,2-1.31l1.78,1.05a4.5,4.5,0,0,1-1.69,1.88,5,5,0,0,1-2.59.48,4.08,4.08,0,0,1-2.92-1.37,5.71,5.71,0,0,1-1.32-4.05A5.26,5.26,0,0,1,181,43.11,4.73,4.73,0,0,1,184.25,41.72Z" transform="translate(-23.71 -41.72)"/><path class="cls-4" d="M189.93,41.91H192V52.47h-2.09Z" transform="translate(-23.71 -41.72)"/><path class="cls-4" d="M197.31,41.91h2l4,10.56H201L200,50.18h-3.76l-.73,2.29h-2.31ZM197,48.16l2.43,0-1.24-3.55Z" transform="translate(-23.71 -41.72)"/><path class="cls-4" d="M203.64,41.91h8.15V44h-3v8.47h-2.19V44h-2.93Z" transform="translate(-23.71 -41.72)"/><path class="cls-4" d="M213.68,41.91h2.08V52.47h-2.08Z" transform="translate(-23.71 -41.72)"/><path class="cls-4" d="M222.16,41.72a4.53,4.53,0,0,1,3.19,1.36,5.65,5.65,0,0,1,1.37,4.08,5.49,5.49,0,0,1-1.42,4.17,4.49,4.49,0,0,1-3.55,1.31,4.1,4.1,0,0,1-3.23-1.6,6.29,6.29,0,0,1-1.1-4,5.44,5.44,0,0,1,1.46-3.91A4.53,4.53,0,0,1,222.16,41.72Zm-2.56,5.47a4.07,4.07,0,0,0,.67,2.38,2.17,2.17,0,0,0,1.84,1,2,2,0,0,0,1.81-.92,4.13,4.13,0,0,0,.64-2.39,4.08,4.08,0,0,0-.67-2.41,2.13,2.13,0,0,0-1.84-.95,2.06,2.06,0,0,0-1.81.95A4.12,4.12,0,0,0,219.6,47.19Z" transform="translate(-23.71 -41.72)"/><path class="cls-4" d="M228.47,41.91h2.1l4.53,6.38V41.91h2.09V52.47H235.1l-4.53-6.93v6.93h-2.1Z" transform="translate(-23.71 -41.72)"/><path class="cls-4" d="M248,118a4.55,4.55,0,1,1-4.5-4.43A4.45,4.45,0,0,1,248,118Zm-8,0a3.45,3.45,0,0,0,3.46,3.53,3.39,3.39,0,0,0,3.37-3.51,3.42,3.42,0,1,0-6.83,0Zm2.73,2.29h-1v-4.43a12.81,12.81,0,0,1,1.7-.13,2.31,2.31,0,0,1,1.51.35,1.11,1.11,0,0,1,.46.94,1.15,1.15,0,0,1-.91,1.06v0c.43.14.64.49.78,1.08a3.9,3.9,0,0,0,.32,1.08h-1.08a3.78,3.78,0,0,1-.35-1.08c-.08-.46-.35-.68-.92-.68h-.48Zm0-2.48h.48c.57,0,1-.19,1-.65s-.3-.68-1-.68a2.11,2.11,0,0,0-.56.06Z" transform="translate(-23.71 -41.72)"/></svg>